<?xml version="1.0" encoding="utf-8"?>
<!-- Uploaded to: SVG Repo, www.svgrepo.com, Generator: SVG Repo Mixer Tools -->
<svg fill="#000000" width="800px" height="800px" viewBox="0 0 32 32" version="1.1" xmlns="http://www.w3.org/2000/svg">
<title>message-ellipsis</title>
<path d="M30 0.75h-28c-0.69 0-1.25 0.56-1.25 1.25v0 22c0 0.69 0.56 1.25 1.25 1.25h6.75v4.75c0 0.486 0.278 0.908 0.684 1.114l0.007 0.003c0.162 0.084 0.353 0.133 0.556 0.133 0.001 0 0.002 0 0.003 0h-0c0 0 0.001 0 0.002 0 0.282 0 0.543-0.094 0.752-0.252l-0.003 0.002 7.666-5.75h11.584c0.69-0.001 1.249-0.56 1.25-1.25v-22c-0-0.69-0.56-1.25-1.25-1.25h-0zM28.75 22.75h-10.75c-0.283 0-0.544 0.094-0.753 0.252l0.003-0.002-6 4.5v-3.5c-0-0.69-0.56-1.25-1.25-1.25h-6.75v-19.5h25.5zM16 16.305c1.825 0 3.305-1.48 3.305-3.305s-1.48-3.305-3.305-3.305c-1.825 0-3.305 1.48-3.305 3.305v0c0.002 1.824 1.48 3.303 3.304 3.305h0zM16 12.195c0.444 0 0.805 0.36 0.805 0.805s-0.36 0.805-0.805 0.805c-0.444 0-0.805-0.36-0.805-0.805v0c0.001-0.444 0.361-0.804 0.805-0.805h0zM8.467 16.305c1.825 0 3.305-1.48 3.305-3.305s-1.48-3.305-3.305-3.305c-1.825 0-3.305 1.48-3.305 3.305v0c0.002 1.824 1.48 3.303 3.305 3.305h0zM8.467 12.195c0.444 0 0.805 0.36 0.805 0.805s-0.36 0.805-0.805 0.805c-0.444 0-0.805-0.36-0.805-0.805v0c0.001-0.444 0.361-0.804 0.805-0.805h0zM23.533 16.305c1.825 0 3.305-1.48 3.305-3.305s-1.48-3.305-3.305-3.305c-1.825 0-3.305 1.48-3.305 3.305v0c0.002 1.824 1.48 3.303 3.304 3.305h0zM23.533 12.195c0.444 0 0.805 0.36 0.805 0.805s-0.36 0.805-0.805 0.805c-0.444 0-0.805-0.36-0.805-0.805v0c0.001-0.444 0.361-0.804 0.805-0.805h0z"></path>
</svg>